<svg width="512" height="424" viewBox="0 0 512 424" fill="none" xmlns="http://www.w3.org/2000/svg">
<g clip-path="url(#clip0)">
<path d="M77.7628 340.893C77.7628 366.515 62.5276 375.462 43.7354 375.462C43.2979 375.462 42.8627 375.457 42.4299 375.446C41.5596 375.427 40.6964 375.389 39.845 375.327C22.8833 374.129 9.70557 364.72 9.70557 340.893C9.70557 316.236 41.2167 285.122 43.5935 282.811L43.5982 282.809C43.6881 282.719 43.7354 282.674 43.7354 282.674C43.7354 282.674 77.7628 315.269 77.7628 340.893Z" fill="#3F3D56"/>
<path d="M42.4936 371.542L54.9406 354.156L42.4629 373.45L42.4298 375.446C41.5595 375.427 40.6962 375.389 39.8448 375.327L41.1858 349.694L41.1763 349.495L41.2 349.457L41.3253 347.036L28.8169 327.692L41.3632 345.22L41.3939 345.733L42.4085 326.366L31.6998 306.379L42.5385 322.963L43.5933 282.811L43.5981 282.674V282.809L43.423 314.472L54.082 301.919L43.3781 317.198L43.0967 334.54L53.0509 317.898L43.0542 337.093L42.8981 346.733L57.3481 323.568L42.8437 350.098L42.4936 371.542Z" fill="#F2F2F2"/>
<g opacity="0.7">
<path opacity="0.7" d="M472.438 161.304V155.133H441.579V183.673C441.579 185.268 442.213 186.798 443.341 187.927C444.47 189.055 446 189.689 447.596 189.689H466.42C468.016 189.689 469.547 189.055 470.676 187.927C471.804 186.798 472.438 185.268 472.438 183.673V177.348C474.566 177.348 476.607 176.503 478.112 174.998C479.616 173.494 480.462 171.453 480.462 169.326C480.462 167.198 479.616 165.158 478.112 163.654C476.607 162.149 474.566 161.304 472.438 161.304V161.304ZM472.438 174.262V164.389C473.748 164.389 475.003 164.909 475.929 165.835C476.855 166.761 477.376 168.017 477.376 169.326C477.376 170.635 476.855 171.891 475.929 172.817C475.003 173.742 473.748 174.262 472.438 174.262V174.262Z" fill="url(#paint0_linear)"/>
</g>
<path d="M471.445 162.27C469.996 162.27 468.58 162.699 467.375 163.504C466.17 164.309 465.231 165.453 464.677 166.791C464.122 168.13 463.977 169.602 464.26 171.023C464.543 172.444 465.24 173.749 466.265 174.773C467.289 175.797 468.595 176.495 470.016 176.778C471.437 177.06 472.91 176.915 474.248 176.361C475.587 175.806 476.731 174.868 477.536 173.663C478.341 172.459 478.771 171.043 478.771 169.594C478.771 167.652 477.999 165.789 476.625 164.415C475.251 163.041 473.388 162.27 471.445 162.27V162.27ZM471.445 174.101C470.553 174.101 469.682 173.837 468.94 173.342C468.199 172.847 467.621 172.143 467.28 171.319C466.939 170.495 466.849 169.589 467.023 168.715C467.197 167.84 467.627 167.037 468.257 166.407C468.888 165.777 469.691 165.347 470.565 165.173C471.44 165 472.346 165.089 473.17 165.43C473.994 165.771 474.698 166.349 475.193 167.09C475.689 167.831 475.953 168.703 475.953 169.594C475.953 170.79 475.478 171.936 474.633 172.781C473.787 173.627 472.64 174.101 471.445 174.101Z" fill="#247283"/>
<path opacity="0.1" d="M471.445 162.27C469.996 162.27 468.58 162.699 467.375 163.504C466.17 164.309 465.231 165.453 464.677 166.791C464.122 168.13 463.977 169.602 464.26 171.023C464.543 172.444 465.24 173.749 466.265 174.773C467.289 175.797 468.595 176.495 470.016 176.778C471.437 177.06 472.91 176.915 474.248 176.361C475.587 175.806 476.731 174.868 477.536 173.663C478.341 172.459 478.771 171.043 478.771 169.594C478.771 167.652 477.999 165.789 476.625 164.415C475.251 163.041 473.388 162.27 471.445 162.27V162.27ZM471.445 174.101C470.553 174.101 469.682 173.837 468.94 173.342C468.199 172.847 467.621 172.143 467.28 171.319C466.939 170.495 466.849 169.589 467.023 168.715C467.197 167.84 467.627 167.037 468.257 166.407C468.888 165.777 469.691 165.347 470.565 165.173C471.44 165 472.346 165.089 473.17 165.43C473.994 165.771 474.698 166.349 475.193 167.09C475.689 167.831 475.953 168.703 475.953 169.594C475.953 170.79 475.478 171.936 474.633 172.781C473.787 173.627 472.64 174.101 471.445 174.101Z" fill="black"/>
<path d="M443.269 156.636H471.445V182.664C471.445 184.129 470.863 185.534 469.827 186.569C468.792 187.605 467.387 188.186 465.922 188.186H448.792C447.327 188.186 445.923 187.605 444.887 186.569C443.851 185.534 443.269 184.129 443.269 182.664V156.636Z" fill="#247283"/>
<path opacity="0.1" d="M466.373 156.636V182.693C466.373 184.15 465.794 185.547 464.764 186.578C463.734 187.608 462.336 188.187 460.879 188.187H463.697C465.154 188.187 466.551 187.608 467.582 186.578C468.612 185.547 469.191 184.15 469.191 182.693V156.636H466.373Z" fill="black"/>
<path d="M448.829 135.634C448.588 135.642 448.352 135.702 448.137 135.811C447.922 135.921 447.733 136.076 447.585 136.266C447.215 136.935 447.885 137.691 448.496 138.151C449.625 139.001 450.815 139.837 451.583 141.024C452.35 142.211 452.592 143.867 451.753 145.004C450.657 146.49 448.043 146.809 447.79 148.637C447.628 149.811 448.643 150.812 449.671 151.401C452.209 152.855 455.481 153.243 457.319 155.517C458.08 153.954 459.781 153.05 461.476 152.664C463.172 152.278 464.933 152.307 466.653 152.045C466.933 152.04 467.209 151.968 467.457 151.837C467.705 151.705 467.919 151.517 468.081 151.287C468.561 150.312 467.192 149.143 467.664 148.164C468.024 147.419 469.081 147.477 469.853 147.179C471.11 146.693 471.628 145.076 471.271 143.777C470.914 142.478 469.907 141.462 468.848 140.63C465.992 138.387 462.559 137.068 459.087 136.119C457.471 135.678 455.576 134.985 453.898 134.919C452.279 134.854 450.432 135.36 448.829 135.634Z" fill="#EEEEEE"/>
<path d="M251.07 194.839L192.156 378.342" stroke="#E0E0E0" stroke-width="8" stroke-miterlimit="10"/>
<g opacity="0.7">
<path opacity="0.7" d="M296.717 399.009C289.47 399.429 283.014 405.499 283.014 405.499L279.892 397.757L279.637 397.839C281.163 391.165 312.191 253.575 281.13 241.713C257.262 232.599 231.946 221.319 212.111 221.743V189.24H239.918V188.081H261.933C266.153 185.068 260.021 182.995 253.168 181.7C253.447 181.38 253.693 181.033 253.902 180.664L289.162 117.417C289.162 117.417 297.272 104.095 292.058 97.7241C286.844 91.3528 279.313 113.942 279.313 113.942L250.346 155.645C250.346 155.645 221.111 125.18 202.513 110.03C200.449 107.985 198.121 106.225 195.59 104.798C192.195 102.502 189.625 101.312 188.358 101.779C188.345 101.783 188.335 101.791 188.322 101.796C185.503 101.016 182.592 100.621 179.668 100.62H177.351V95.8678C182.542 94.1537 187.291 91.3159 191.259 87.5565C195.227 83.7971 198.317 79.2088 200.308 74.1186C203.576 68.7068 205.572 62.6236 206.145 56.3279C206.718 50.0322 205.854 43.6886 203.616 37.7759C203.962 37.7351 204.295 37.6199 204.592 37.4382C205.641 36.763 205.745 35.2858 205.644 34.0424C205.263 29.8691 203.872 25.8513 201.589 22.3364C199.307 18.8215 196.203 15.9153 192.545 13.869C189.61 12.2643 186.248 11.1587 184.084 8.60833C182.224 6.41688 181.442 3.35188 179.192 1.56381C176.518 -0.560444 172.656 -0.195258 169.375 0.752614C165.724 1.80877 162.265 3.44072 159.128 5.58687C155.58 8.01699 152.377 11.139 148.291 12.4841C145.388 13.4399 142.24 13.4208 139.318 14.3187C137.076 15.029 135.032 16.254 133.348 17.8958C131.664 19.5376 130.388 21.5505 129.622 23.7737C128.878 26.1619 128.597 28.6701 128.792 31.1638C127.016 34.1329 125.618 37.3126 124.631 40.6288C124.413 40.7468 124.193 40.8623 123.976 40.9841L124.611 40.6985C122.395 48.1765 122.322 56.1259 124.399 63.6436C126.476 71.1613 130.62 77.9459 136.361 83.2264C140.898 89.1309 147.105 93.5354 154.177 95.8678V101.617C149.132 102.705 144.318 104.676 139.959 107.439L139.953 107.432C139.953 107.432 139.583 107.66 138.95 108.086C138.886 108.128 138.823 108.171 138.76 108.214C134.473 111.123 120.108 121.752 120.593 133.238C120.574 133.679 120.577 134.122 120.601 134.567C119.816 137.886 119.419 141.285 119.417 144.695V228.047C119.406 237.257 122.502 246.202 128.204 253.435C116.115 256.144 108.41 260.242 108.41 264.827C108.471 265.211 108.471 265.602 108.41 265.986C108.41 274.143 132.791 280.755 162.867 280.755C166.504 280.755 170.056 280.658 173.493 280.474L207.476 307.978L153.019 395.44C153.019 395.44 135.059 409.341 148.963 413.974C162.867 418.608 191.255 422.083 191.255 422.083C191.255 422.083 195.889 413.974 189.517 410.499C183.144 407.024 174.454 408.762 174.454 408.762L175.613 401.811C175.613 401.811 270.044 320.721 250.346 292.919C246.578 287.6 242.81 282.112 239.009 276.709L253.874 278.064L257.257 405.359L257.68 405.221C256.831 407.722 250.825 426.595 264.138 423.401C278.389 419.982 304.32 407.922 304.32 407.922C304.32 407.922 303.964 398.589 296.717 399.009ZM239.918 179.972L212.111 171.901V148.116L242.335 180.193C240.849 180.044 239.918 179.972 239.918 179.972Z" fill="url(#paint1_linear)"/>
</g>
<path d="M165.531 96.8578C188.057 96.8578 206.318 78.6007 206.318 56.0794C206.318 33.5581 188.057 15.301 165.531 15.301C143.005 15.301 124.745 33.5581 124.745 56.0794C124.745 78.6007 143.005 96.8578 165.531 96.8578Z" fill="black"/>
<path d="M211.983 149.53L243.11 182.565C243.765 183.261 244.576 183.792 245.475 184.116C246.374 184.44 247.337 184.548 248.286 184.43C249.234 184.312 250.142 183.972 250.934 183.438C251.727 182.904 252.383 182.191 252.848 181.356L287.326 119.513L277.695 116.114L249.371 156.893C249.371 156.893 196.197 101.481 188.757 104.221C181.318 106.96 211.983 149.53 211.983 149.53Z" fill="#247283"/>
<path d="M152.502 263.936L106.617 382.873" stroke="#BDBDBD" stroke-width="5" stroke-miterlimit="10"/>
<path d="M175.162 263.936L221.047 382.873" stroke="#BDBDBD" stroke-width="5" stroke-miterlimit="10"/>
<path d="M163.832 279.228C193.241 279.228 217.081 272.762 217.081 264.786C217.081 256.809 193.241 250.343 163.832 250.343C134.423 250.343 110.583 256.809 110.583 264.786C110.583 272.762 134.423 279.228 163.832 279.228Z" fill="#B84733"/>
<path d="M163.832 278.095C193.241 278.095 217.081 271.629 217.081 263.653C217.081 255.677 193.241 249.21 163.832 249.21C134.423 249.21 110.583 255.677 110.583 263.653C110.583 271.629 134.423 278.095 163.832 278.095Z" fill="#F55F44"/>
<path d="M141.425 290.067L191.667 305.546" stroke="#BDBDBD" stroke-width="5" stroke-miterlimit="10"/>
<path d="M186.239 290.067L135.998 305.546" stroke="#BDBDBD" stroke-width="5" stroke-miterlimit="10"/>
<path d="M164.452 103.088H180.26C188.673 103.088 196.742 106.429 202.692 112.377C208.641 118.325 211.983 126.393 211.983 134.804V218.627H121.346V146.185C121.346 134.755 125.887 123.793 133.971 115.711C142.055 107.628 153.02 103.088 164.452 103.088V103.088Z" fill="#247283"/>
<path d="M121.346 218.627H211.983V267.901H161.566C150.899 267.901 140.669 263.664 133.126 256.123C125.583 248.581 121.346 238.353 121.346 227.688V218.627V218.627Z" fill="#39447A"/>
<path opacity="0.05" d="M122.57 137.092L177.994 189.742H239.174V181.813L186.491 166.521L141.426 110.881C141.426 110.881 120.962 123.522 122.57 137.092Z" fill="black"/>
<path d="M122.57 135.959L177.994 188.609H239.174V180.68L186.491 165.388L141.426 109.748C141.426 109.748 120.962 122.389 122.57 135.959Z" fill="#247283"/>
<path d="M239.174 180.68C239.174 180.68 268.632 182.946 260.701 188.609H239.174V180.68Z" fill="#FDA57D"/>
<path d="M277.695 116.114C277.695 116.114 285.06 94.026 290.158 100.256C295.256 106.486 287.326 119.512 287.326 119.512L277.695 116.114Z" fill="#FDA57D"/>
<path opacity="0.05" d="M121.346 218.627V221.27L211.983 221.458V218.627H121.346Z" fill="black"/>
<path d="M191.852 271.041L252.821 276.596L256.128 401.067L277.956 393.963C277.956 393.963 310.6 252.939 279.472 241.052C248.344 229.164 214.695 213.511 194.606 226.268C174.516 239.025 191.852 271.041 191.852 271.041Z" fill="#39447A"/>
<path opacity="0.1" d="M195.555 232.786C195.555 232.786 228.978 249.777 233.51 269.033Z" fill="black"/>
<path d="M159.867 267.334L207.451 305.847L154.202 391.368L176.295 397.599C176.295 397.599 268.631 318.307 249.371 291.122C230.11 263.936 210.85 232.219 187.058 231.653C163.265 231.087 159.867 267.334 159.867 267.334Z" fill="#39447A"/>
<path opacity="0.05" d="M234.643 142.167L246.539 162.556L249.371 156.893L234.643 142.167Z" fill="black"/>
<path d="M154.202 391.368C154.202 391.368 136.641 404.961 150.236 409.492C163.832 414.023 191.59 417.421 191.59 417.421C191.59 417.421 196.122 409.492 189.89 406.094C183.659 402.696 175.162 404.395 175.162 404.395L176.295 397.599L154.202 391.368Z" fill="#333333"/>
<path d="M256.635 400.665C256.635 400.665 248.921 422.053 262.856 418.71C276.792 415.367 302.148 403.574 302.148 403.574C302.148 403.574 301.799 394.448 294.713 394.859C287.627 395.269 281.314 401.204 281.314 401.204L278.262 393.634L256.635 400.665Z" fill="#333333"/>
<path d="M166.665 83.265H166.665C160.407 83.265 155.335 88.3364 155.335 94.5923V105.92C155.335 112.176 160.407 117.247 166.665 117.247H166.665C172.922 117.247 177.994 112.176 177.994 105.92V94.5923C177.994 88.3364 172.922 83.265 166.665 83.265Z" fill="#FDA57D"/>
<path opacity="0.05" d="M166.665 84.3977C163.66 84.3977 160.778 85.5911 158.653 87.7154C156.529 89.8397 155.335 92.7209 155.335 95.7251V99.5736C162.694 101.994 170.635 101.994 177.994 99.5736V95.7251C177.994 92.7209 176.801 89.8397 174.676 87.7154C172.551 85.5911 169.669 84.3977 166.665 84.3977Z" fill="black"/>
<path d="M166.664 100.256C186.687 100.256 202.919 84.0275 202.919 64.0086C202.919 43.9896 186.687 27.7611 166.664 27.7611C146.641 27.7611 130.409 43.9896 130.409 64.0086C130.409 84.0275 146.641 100.256 166.664 100.256Z" fill="#FDA57D"/>
<path opacity="0.05" d="M130.409 62.3637C130.409 62.3637 139.473 64.699 144.572 54.3997C149.67 44.1004 153.635 38.4826 174.595 44.5686C195.555 50.6545 199.772 51.3971 200.779 45.6421C201.467 41.7095 194.014 32.1574 189.225 26.502C186.889 23.7432 183.076 22.0974 179.001 22.0974H155.335L141.173 28.6515L130.409 38.0145L128.144 50.6545L130.409 62.3637Z" fill="black"/>
<path d="M130.409 61.231C130.409 61.231 139.473 63.5663 144.572 53.267C149.67 42.9677 153.635 37.3499 174.595 43.4359C195.555 49.5218 199.772 50.2644 200.779 44.5094C201.467 40.5768 194.014 31.0247 189.225 25.3694C186.889 22.6105 183.076 20.9647 179.001 20.9647H155.335L141.173 27.5188L130.409 36.8818L128.144 49.5218L130.409 61.231Z" fill="black"/>
<path d="M134.091 68.5395C136.125 68.5395 137.773 65.2431 137.773 61.1767C137.773 57.1104 136.125 53.814 134.091 53.814C132.058 53.814 130.409 57.1104 130.409 61.1767C130.409 65.2431 132.058 68.5395 134.091 68.5395Z" fill="#FDA57D"/>
<path d="M131.46 42.2314C130.62 37.4901 129.795 32.5115 131.324 27.9457C132.074 25.7719 133.321 23.8036 134.968 22.1983C136.614 20.5929 138.613 19.395 140.806 18.7005C143.662 17.8225 146.741 17.8412 149.579 16.9066C153.574 15.5913 156.706 12.5386 160.176 10.1623C163.243 8.06375 166.626 6.468 170.196 5.43527C173.404 4.50841 177.18 4.15132 179.795 6.22849C181.995 7.9769 182.76 10.9739 184.578 13.1168C186.695 15.6105 189.982 16.6917 192.852 18.2608C196.429 20.2617 199.464 23.1034 201.696 26.5403C203.927 29.9773 205.288 33.9059 205.66 37.9866C205.759 39.2025 205.658 40.6469 204.632 41.3072C203.994 41.6313 203.276 41.7624 202.566 41.6843C188.076 41.4772 173.568 41.2693 159.138 39.9394C154.652 39.526 150.158 39.0037 145.656 39.1742C138.689 39.4458 131.885 41.365 125.804 44.7744" fill="black"/>
<path d="M68.7152 365.458H18.5716C8.31481 365.458 0 373.771 0 384.026V384.026C0 394.28 8.31481 402.594 18.5716 402.594H68.7152C78.972 402.594 87.2868 394.28 87.2868 384.026C87.2868 373.771 78.972 365.458 68.7152 365.458Z" fill="#247283"/>
<path d="M326.224 232.88C326.444 232.873 326.653 232.78 326.806 232.621C326.959 232.463 327.045 232.251 327.045 232.031C327.045 231.81 326.959 231.599 326.806 231.44C326.653 231.282 326.444 231.189 326.224 231.181C326.004 231.189 325.795 231.282 325.642 231.44C325.489 231.599 325.403 231.81 325.403 232.031C325.403 232.251 325.489 232.463 325.642 232.621C325.795 232.78 326.004 232.873 326.224 232.88Z" fill="url(#paint2_linear)"/>
<path d="M450.904 194.839L509.819 404.447" stroke="#E0E0E0" stroke-width="8" stroke-miterlimit="10"/>
<path d="M510.058 188.701H191.917V201.096H510.058V188.701Z" fill="#E0E0E0"/>
<path d="M318.765 185.777H274.013C271.98 185.777 270.331 187.426 270.331 189.459V189.459C270.331 191.492 271.98 193.14 274.013 193.14H318.765C320.799 193.14 322.447 191.492 322.447 189.459C322.447 187.426 320.799 185.777 318.765 185.777Z" fill="#535461"/>
<g opacity="0.7">
<path opacity="0.7" d="M415.6 103.689H318.04C309.211 103.689 302.054 110.844 302.054 119.671V177.249C302.054 186.076 309.211 193.232 318.04 193.232H415.6C424.429 193.232 431.586 186.076 431.586 177.249V119.671C431.586 110.844 424.429 103.689 415.6 103.689Z" fill="url(#paint3_linear)"/>
</g>
<path d="M411.867 105.341H319.565C311.169 105.341 304.363 112.145 304.363 120.539V178.033C304.363 186.427 311.169 193.232 319.565 193.232H411.867C420.263 193.232 427.069 186.427 427.069 178.033V120.539C427.069 112.145 420.263 105.341 411.867 105.341Z" fill="#3E3F49"/>
<path d="M413.567 105.341H321.265C312.869 105.341 306.063 112.145 306.063 120.539V178.033C306.063 186.427 312.869 193.232 321.265 193.232H413.567C421.962 193.232 428.768 186.427 428.768 178.033V120.539C428.768 112.145 421.962 105.341 413.567 105.341Z" fill="#535461"/>
<path d="M373.147 152.645C375.338 152.645 377.113 150.87 377.113 148.68C377.113 146.491 375.338 144.716 373.147 144.716C370.957 144.716 369.182 146.491 369.182 148.68C369.182 150.87 370.957 152.645 373.147 152.645Z" fill="#E0E0E0"/>
</g>
<defs>
<linearGradient id="paint0_linear" x1="461.02" y1="189.689" x2="461.02" y2="155.133" gradientUnits="userSpaceOnUse">
<stop stop-color="#808080" stop-opacity="0.25"/>
<stop offset="0.53514" stop-color="#808080" stop-opacity="0.12"/>
<stop offset="1" stop-color="#808080" stop-opacity="0.1"/>
</linearGradient>
<linearGradient id="paint1_linear" x1="100825" y1="349227" x2="100825" y2="32160.5" gradientUnits="userSpaceOnUse">
<stop stop-color="#808080" stop-opacity="0.25"/>
<stop offset="0.53514" stop-color="#808080" stop-opacity="0.12"/>
<stop offset="1" stop-color="#808080" stop-opacity="0.1"/>
</linearGradient>
<linearGradient id="paint2_linear" x1="1516.7" y1="1058.78" x2="1516.7" y2="1053.68" gradientUnits="userSpaceOnUse">
<stop stop-color="#808080" stop-opacity="0.25"/>
<stop offset="0.53514" stop-color="#808080" stop-opacity="0.12"/>
<stop offset="1" stop-color="#808080" stop-opacity="0.1"/>
</linearGradient>
<linearGradient id="paint3_linear" x1="84178.9" y1="30653.9" x2="84178.9" y2="16497" gradientUnits="userSpaceOnUse">
<stop stop-color="#808080" stop-opacity="0.25"/>
<stop offset="0.53514" stop-color="#808080" stop-opacity="0.12"/>
<stop offset="1" stop-color="#808080" stop-opacity="0.1"/>
</linearGradient>
<clipPath id="clip0">
<rect width="512" height="423.764" fill="white"/>
</clipPath>
</defs>
</svg>
