<svg width="500" height="500" viewBox="0 0 500 500" fill="none" xmlns="http://www.w3.org/2000/svg">
<rect width="500" height="500" fill="white"/>
<path d="M201.416 228.104V411.697H173.95V228.104H201.416ZM169.8 178.665C169.8 173.864 171.549 169.713 175.049 166.214C178.548 162.715 182.739 160.965 187.622 160.965C192.586 160.965 196.818 162.715 200.317 166.214C203.817 169.632 205.566 173.823 205.566 178.787C205.566 183.751 203.817 187.983 200.317 191.482C196.899 194.982 192.708 196.731 187.744 196.731C182.78 196.731 178.548 194.982 175.049 191.482C171.549 187.983 169.8 183.711 169.8 178.665Z" fill="#247283"/>
<path d="M263.672 140.823V266.556L302.368 228.104H339.233L287.598 278.03L343.018 347H307.373L268.066 296.829L263.672 301.224V347H236.206V140.823H263.672Z" fill="#656F71"/>
</svg>
