<svg width="32" height="32" viewBox="0 0 32 32" fill="none" xmlns="http://www.w3.org/2000/svg">
<rect width="32" height="32" fill="white"/>
<path d="M23.84 8H8.16C8.072 8 8 8.08182 8 8.18182V9.63636C8 9.73636 8.072 9.81818 8.16 9.81818H23.84C23.928 9.81818 24 9.73636 24 9.63636V8.18182C24 8.08182 23.928 8 23.84 8ZM23.84 22.1818H8.16C8.072 22.1818 8 22.2636 8 22.3636V23.8182C8 23.9182 8.072 24 8.16 24H23.84C23.928 24 24 23.9182 24 23.8182V22.3636C24 22.2636 23.928 22.1818 23.84 22.1818ZM23.84 15.0909H8.16C8.072 15.0909 8 15.1727 8 15.2727V16.7273C8 16.8273 8.072 16.9091 8.16 16.9091H23.84C23.928 16.9091 24 16.8273 24 16.7273V15.2727C24 15.1727 23.928 15.0909 23.84 15.0909Z" fill="#B562E7"/>
</svg>
