<svg width="16" height="16" viewBox="0 0 16 16" fill="none" xmlns="http://www.w3.org/2000/svg">
<path d="M8.00001 0.320007C3.75841 0.320007 0.320007 3.75841 0.320007 8.00001C0.320007 12.2416 3.75841 15.68 8.00001 15.68C12.2416 15.68 15.68 12.2416 15.68 8.00001C15.68 3.75841 12.2416 0.320007 8.00001 0.320007ZM6.12001 11.1832H4.56481V6.17841H6.12001V11.1832ZM5.33281 5.56401C4.84161 5.56401 4.52401 5.21601 4.52401 4.78561C4.52401 4.34641 4.85121 4.00881 5.35281 4.00881C5.85441 4.00881 6.16161 4.34641 6.17121 4.78561C6.17121 5.21601 5.85441 5.56401 5.33281 5.56401ZM11.8 11.1832H10.2448V8.40961C10.2448 7.76401 10.0192 7.32561 9.45681 7.32561C9.02721 7.32561 8.77201 7.62241 8.65921 7.90801C8.61761 8.00961 8.60721 8.15361 8.60721 8.29681V11.1824H7.05121V7.77441C7.05121 7.14961 7.03121 6.62721 7.01041 6.17761H8.36161L8.43281 6.87281H8.46401C8.66881 6.54641 9.17041 6.06481 10.0096 6.06481C11.0328 6.06481 11.8 6.75041 11.8 8.22401V11.1832V11.1832Z" fill="black"/>
</svg>
